# xmcd
#
# Track frame offsets:
#	150
#	15139
#	29744
#	42992
#	56502
#	76775
#	88659
#	106068
#	121061
#	140566
#	155910
#	167165
#	181392
#	193112
#	207982
#
# Disc length: 3045 seconds
#
# Revision: 2
# Processed by: cddbd v1.4PL0 Copyright (c) Steve Scherf et al.
# Submitted via: EZCDDA 4.3.2
#
DISCID=c40be30f
DTITLE=Robbie Williams - Swing When You're Winning
DYEAR=1900
DGENRE=
TTITLE0=I Will Talk And Hollywood Will Listen
TTITLE1=Mack The Knife
TTITLE2=Somethin' Stupid
TTITLE3=Do Nothin' Till You Hear From Me
TTITLE4=It Was A Very Good Year
TTITLE5=Straighten Up And Fly Right
TTITLE6=Well, Did You Evah
TTITLE7=Mr. Bojangles
TTITLE8=One For My Baby
TTITLE9=Things
TTITLE10=Ain't That A Kick In The Head
TTITLE11=They Can't Take That Away From Me
TTITLE12=Have You Met Miss Jones
TTITLE13=Me And My Shadow
TTITLE14=Beyond The Sea
EXTD=
EXTT0=
EXTT1=
EXTT2=
EXTT3=
EXTT4=
EXTT5=
EXTT6=
EXTT7=
EXTT8=
EXTT9=
EXTT10=
EXTT11=
EXTT12=
EXTT13=
EXTT14=
PLAYORDER=
